<svg width="195" height="72" viewBox="0 0 195 72" fill="none" xmlns="http://www.w3.org/2000/svg">
<rect x="0.5" y="0.5" width="194" height="71" rx="35.5" fill="url(#paint0_radial_15_11)" stroke="#79F2EA"/>
<path d="M50.8065 45.3613C49.6882 45.3613 48.7935 45.1032 48.1226 44.5871C47.4516 44.071 47.0387 43.3312 46.8839 42.3677C46.729 41.3871 46.8323 40.2172 47.1935 38.8581L50.2387 28.071C50.3935 27.486 50.4452 27.0387 50.3935 26.729C50.3419 26.4022 50.1527 26.1699 49.8258 26.0323C49.4989 25.8946 49.0172 25.8258 48.3806 25.8258L48.4581 25.5419C49.628 25.5247 50.6688 25.4301 51.5806 25.2581C52.4925 25.086 53.3097 24.828 54.0323 24.4839L49.6194 40.3032C49.1548 41.9204 49.0258 43.1247 49.2323 43.9161C49.4387 44.6903 49.929 45.0774 50.7032 45.0774C51.357 45.0774 51.9849 44.8366 52.5871 44.3548C53.1892 43.8731 53.7226 43.228 54.1871 42.4194C54.6688 41.6108 55.0387 40.6903 55.2968 39.6581C55.572 38.6086 55.7097 37.5247 55.7097 36.4065C55.7097 35.0645 55.5118 34.0323 55.1161 33.3097C54.7376 32.5699 54.1785 32.2 53.4387 32.2C52.9742 32.2 52.5527 32.3462 52.1742 32.6387C51.7957 32.9312 51.4602 33.3613 51.1677 33.929V33.6968C51.5978 32.9226 52.1226 32.3376 52.7419 31.9419C53.3613 31.5462 54.0409 31.3484 54.7806 31.3484C55.9505 31.3484 56.871 31.8043 57.5419 32.7161C58.2301 33.6108 58.5742 34.8409 58.5742 36.4065C58.557 37.6452 58.3505 38.8065 57.9548 39.8903C57.5591 40.9742 57 41.929 56.2774 42.7548C55.572 43.5634 54.7462 44.2 53.8 44.6645C52.871 45.129 51.8731 45.3613 50.8065 45.3613ZM65.0702 45.3613C64.2272 45.3613 63.5476 45.1462 63.0315 44.7161C62.5153 44.286 62.1884 43.6925 62.0508 42.9355C61.9132 42.1613 61.9906 41.2581 62.2831 40.2258L63.8831 34.4452C64.0895 33.7398 64.1239 33.1978 63.9863 32.8194C63.8659 32.4409 63.6078 32.2516 63.2121 32.2516C62.8336 32.2516 62.4551 32.4237 62.0766 32.7677C61.7153 33.1118 61.354 33.6194 60.9927 34.2903L60.5024 35.2194H60.2185L60.7863 34.1355C61.0444 33.6538 61.3368 33.2065 61.6637 32.7935C62.0078 32.3634 62.3949 32.0194 62.825 31.7613C63.2723 31.486 63.7884 31.3484 64.3734 31.3484C65.0272 31.3484 65.5433 31.5118 65.9218 31.8387C66.3175 32.1484 66.5669 32.5957 66.6702 33.1806C66.7734 33.7484 66.7132 34.4194 66.4895 35.1935L64.9411 40.6903C64.597 41.9118 64.5454 42.8495 64.7863 43.5032C65.0444 44.1398 65.5691 44.4581 66.3605 44.4581C66.9282 44.4581 67.4444 44.286 67.9089 43.9419C68.3734 43.5806 68.8121 43.0473 69.225 42.3419L69.2508 42.5226C68.7175 43.4688 68.0981 44.1828 67.3927 44.6645C66.7046 45.129 65.9304 45.3613 65.0702 45.3613ZM71.2895 45.3613C70.6185 45.3613 70.0852 45.2065 69.6895 44.8968C69.311 44.5699 69.0702 44.114 68.9669 43.529C68.8809 42.9441 68.9411 42.2731 69.1476 41.5161L71.9089 31.7097H74.696L71.754 42.2645C71.5476 42.9355 71.5046 43.4688 71.625 43.8645C71.7454 44.2602 72.0207 44.4581 72.4508 44.4581C72.8121 44.4581 73.1734 44.2946 73.5347 43.9677C73.9132 43.6237 74.2831 43.1075 74.6444 42.4194L75.1347 41.4903H75.4185L74.8508 42.5742C74.5927 43.0387 74.2917 43.486 73.9476 43.9161C73.6207 44.3462 73.2422 44.6989 72.8121 44.9742C72.382 45.2323 71.8745 45.3613 71.2895 45.3613ZM74.9798 51.1677C74.4121 51.1677 73.9562 51.0387 73.6121 50.7806C73.268 50.5398 73.096 50.2129 73.096 49.8C73.096 49.4215 73.2336 49.1118 73.5089 48.871C73.7669 48.6473 74.1024 48.5355 74.5153 48.5355C74.8078 48.5355 75.0917 48.5871 75.3669 48.6903C75.625 48.7935 75.8831 48.9054 76.1411 49.0258C76.4164 49.1462 76.6831 49.2581 76.9411 49.3613C77.2164 49.4645 77.4917 49.5161 77.7669 49.5161C78.2831 49.5161 78.8852 49.2753 79.5734 48.7935C80.2788 48.329 81.0185 47.7011 81.7927 46.9097C82.5841 46.1183 83.3497 45.2409 84.0895 44.2774C84.8465 43.314 85.5261 42.3419 86.1282 41.3613C86.7476 40.3806 87.2379 39.4516 87.5992 38.5742C87.9777 37.6968 88.1669 36.957 88.1669 36.3548C88.1669 35.8903 88.0551 35.5032 87.8315 35.1935C87.6078 34.8667 87.3497 34.5828 87.0573 34.3419C86.782 34.0839 86.5325 33.8258 86.3089 33.5677C86.1024 33.2925 85.9992 32.9828 85.9992 32.6387C85.9992 32.2602 86.1282 31.9505 86.3863 31.7097C86.6444 31.4688 86.9798 31.3484 87.3927 31.3484C87.9261 31.3484 88.3476 31.572 88.6573 32.0194C88.9669 32.4495 89.1218 33.0688 89.1218 33.8774C89.1218 34.8925 88.8895 36.028 88.425 37.2839C87.9777 38.5398 87.3669 39.8129 86.5927 41.1032C85.8185 42.3935 84.9411 43.6409 83.9605 44.8452C82.997 46.0495 81.982 47.1247 80.9153 48.071C79.8659 49.0172 78.825 49.7656 77.7927 50.3161C76.7777 50.8839 75.8401 51.1677 74.9798 51.1677ZM80.7605 48.071C80.9325 46.5742 81.0272 45.0774 81.0444 43.5806C81.0616 42.0839 81.0099 40.6731 80.8895 39.3484C80.7863 38.0065 80.6228 36.8194 80.3992 35.7871C80.1927 34.7376 79.9433 33.9204 79.6508 33.3355C79.3755 32.7333 79.0659 32.4323 78.7218 32.4323C78.4981 32.4323 78.2487 32.5785 77.9734 32.871C77.7153 33.1462 77.4142 33.6194 77.0702 34.2903L76.554 35.2194H76.2702L76.9153 34.0065C77.3798 33.0946 77.8616 32.4237 78.3605 31.9935C78.8594 31.5634 79.4013 31.3484 79.9863 31.3484C80.8465 31.3484 81.5519 31.8559 82.1024 32.871C82.6702 33.886 83.0745 35.4172 83.3153 37.4645C83.5734 39.5118 83.6594 42.0839 83.5734 45.1806C83.3153 45.4903 83.0401 45.8 82.7476 46.1097C82.4723 46.4194 82.1712 46.729 81.8444 47.0387C81.5347 47.3656 81.1734 47.7097 80.7605 48.071ZM108.928 45.3613C108.274 45.3613 107.75 45.2065 107.354 44.8968C106.975 44.5699 106.734 44.1226 106.631 43.5548C106.528 42.9699 106.58 42.2903 106.786 41.5161L108.334 36.0194C108.679 34.7806 108.722 33.843 108.464 33.2065C108.223 32.5699 107.698 32.2516 106.889 32.2516C106.304 32.2516 105.762 32.4323 105.264 32.7935C104.765 33.1376 104.291 33.6624 103.844 34.3677L103.818 34.1871C104.386 33.2409 105.031 32.5355 105.754 32.071C106.494 31.5892 107.302 31.3484 108.18 31.3484C109.47 31.3484 110.373 31.8129 110.889 32.7419C111.405 33.671 111.448 34.9097 111.018 36.4581L109.393 42.2645C109.203 42.9699 109.169 43.5118 109.289 43.8903C109.41 44.2688 109.668 44.4581 110.064 44.4581C110.459 44.4581 110.838 44.286 111.199 43.9419C111.577 43.5978 111.939 43.0903 112.283 42.4194L112.773 41.4903H113.057L112.489 42.5742C112.231 43.0387 111.939 43.486 111.612 43.9161C111.285 44.3462 110.898 44.6989 110.451 44.9742C110.02 45.2323 109.513 45.3613 108.928 45.3613ZM98.3474 45L101.315 34.4452C101.504 33.7742 101.539 33.2409 101.418 32.8452C101.298 32.4495 101.023 32.2516 100.593 32.2516C100.231 32.2516 99.8614 32.4237 99.4829 32.7677C99.1216 33.1118 98.7603 33.6194 98.399 34.2903L97.9087 35.2194H97.6248L98.1925 34.1355C98.4506 33.6538 98.7431 33.2065 99.07 32.7935C99.414 32.3634 99.8011 32.0194 100.231 31.7613C100.679 31.486 101.195 31.3484 101.78 31.3484C102.416 31.3484 102.924 31.5118 103.302 31.8387C103.698 32.1484 103.947 32.5957 104.051 33.1806C104.171 33.7484 104.119 34.4194 103.896 35.1935L101.134 45H98.3474ZM119.153 45.3613C117.742 45.3613 116.641 44.914 115.85 44.0194C115.076 43.1247 114.689 41.8774 114.689 40.2774C114.689 39.0731 114.886 37.9376 115.282 36.871C115.695 35.7871 116.254 34.8323 116.959 34.0065C117.665 33.1806 118.473 32.5355 119.385 32.071C120.314 31.5892 121.295 31.3484 122.327 31.3484C123.738 31.3484 124.839 31.8043 125.63 32.7161C126.422 33.6108 126.818 34.8581 126.818 36.4581C126.818 37.6452 126.611 38.772 126.198 39.8387C125.802 40.9054 125.243 41.8516 124.521 42.6774C123.815 43.5032 122.998 44.157 122.069 44.6387C121.157 45.1204 120.185 45.3613 119.153 45.3613ZM119.179 45.0774C119.661 45.0774 120.134 44.8968 120.598 44.5355C121.08 44.157 121.519 43.6495 121.914 43.0129C122.327 42.3591 122.689 41.6194 122.998 40.7935C123.325 39.9505 123.575 39.0559 123.747 38.1097C123.936 37.1634 124.03 36.2172 124.03 35.271C124.03 34.0495 123.884 33.1376 123.592 32.5355C123.316 31.9333 122.895 31.6323 122.327 31.6323C121.845 31.6323 121.364 31.8215 120.882 32.2C120.418 32.5613 119.979 33.0688 119.566 33.7226C119.17 34.3591 118.809 35.0989 118.482 35.9419C118.155 36.7677 117.897 37.6538 117.708 38.6C117.536 39.5462 117.45 40.4925 117.45 41.4387C117.45 42.643 117.596 43.5548 117.889 44.1742C118.181 44.7763 118.611 45.0774 119.179 45.0774ZM139.431 45.3613C138.399 45.3613 137.607 45.0258 137.057 44.3548C136.506 43.6667 136.231 42.6774 136.231 41.3871C136.231 40.5785 136.351 39.7785 136.592 38.9871C136.85 38.1785 137.186 37.4473 137.599 36.7935C138.011 36.1398 138.467 35.6237 138.966 35.2452C139.482 34.8495 139.999 34.6516 140.515 34.6516C140.928 34.6516 141.237 34.8237 141.444 35.1677C141.667 35.4946 141.779 36.0108 141.779 36.7161C141.779 37.8172 141.513 38.9355 140.979 40.071C140.463 41.2065 139.689 42.2903 138.657 43.3226L138.579 43.0903C139.525 42.1097 140.248 41.0774 140.747 39.9935C141.263 38.8925 141.521 37.8258 141.521 36.7935C141.521 36.243 141.452 35.8215 141.315 35.529C141.177 35.2194 140.988 35.0645 140.747 35.0645C140.386 35.0645 140.033 35.3398 139.689 35.8903C139.362 36.4409 139.087 37.1376 138.863 37.9806C138.639 38.8237 138.528 39.6925 138.528 40.5871C138.528 41.7226 138.725 42.6 139.121 43.2194C139.517 43.8387 140.085 44.1484 140.824 44.1484C141.427 44.1484 142.037 43.9419 142.657 43.529C143.276 43.1161 143.844 42.5656 144.36 41.8774C144.876 41.1892 145.289 40.4409 145.599 39.6323C145.925 38.8237 146.089 38.0323 146.089 37.2581C146.089 36.6903 146.011 36.2258 145.857 35.8645C145.702 35.486 145.513 35.1591 145.289 34.8839C145.082 34.6086 144.867 34.3677 144.644 34.1613C144.42 33.9376 144.231 33.714 144.076 33.4903C143.938 33.2667 143.87 32.9914 143.87 32.6645C143.87 32.2688 143.99 31.9505 144.231 31.7097C144.489 31.4688 144.824 31.3484 145.237 31.3484C145.805 31.3484 146.227 31.6151 146.502 32.1484C146.794 32.6645 146.941 33.4645 146.941 34.5484C146.941 35.9247 146.734 37.2581 146.321 38.5484C145.908 39.8215 145.341 40.9742 144.618 42.0065C143.913 43.0387 143.113 43.8559 142.218 44.4581C141.323 45.0602 140.394 45.3613 139.431 45.3613ZM133.779 45.3613C132.644 45.3613 131.741 45.0344 131.07 44.3806C130.416 43.7269 130.089 42.8409 130.089 41.7226C130.089 41.0344 130.227 40.3548 130.502 39.6839C130.777 39.0129 131.181 38.3075 131.715 37.5677C132.248 36.8108 132.885 35.9763 133.624 35.0645C134.381 34.1527 135.233 33.1118 136.179 31.9419C135.852 32.1312 135.482 32.286 135.07 32.4065C134.674 32.5097 134.278 32.5613 133.882 32.5613C133.487 32.5613 133.143 32.5183 132.85 32.4323C132.558 32.3462 132.308 32.2602 132.102 32.1742C131.895 32.071 131.741 32.0194 131.637 32.0194C131.534 32.0194 131.457 32.0452 131.405 32.0968C131.371 32.1484 131.353 32.2258 131.353 32.329C131.353 32.5183 131.405 32.7161 131.508 32.9226C131.629 33.129 131.741 33.3441 131.844 33.5677C131.964 33.7914 132.024 34.0323 132.024 34.2903C132.024 34.6516 131.887 34.9613 131.611 35.2194C131.353 35.4774 131.035 35.6065 130.657 35.6065C130.295 35.6065 130.011 35.4946 129.805 35.271C129.616 35.0301 129.521 34.7204 129.521 34.3419C129.521 33.8086 129.71 33.3183 130.089 32.871C130.485 32.4065 131.009 32.0366 131.663 31.7613C132.317 31.4688 133.039 31.3226 133.831 31.3226C134.227 31.3226 134.639 31.3656 135.07 31.4516C135.5 31.5376 135.913 31.6409 136.308 31.7613L136.773 31.0903L136.979 31.1935C136.085 32.4151 135.336 33.5849 134.734 34.7032C134.132 35.8215 133.676 36.8796 133.366 37.8774C133.074 38.8753 132.928 39.8387 132.928 40.7677C132.928 41.9032 133.151 42.7806 133.599 43.4C134.046 44.0194 134.674 44.329 135.482 44.329C135.792 44.329 136.076 44.2946 136.334 44.2258C136.609 44.1398 136.876 44.0022 137.134 43.8129L137.237 44.0968C136.721 44.5269 136.171 44.8452 135.586 45.0516C135.018 45.2581 134.416 45.3613 133.779 45.3613Z" fill="black"/>
<defs>
<radialGradient id="paint0_radial_15_11" cx="0" cy="0" r="1" gradientTransform="matrix(-36.6443 54.3273 -140.017 -94.4954 140.034 72)" gradientUnits="userSpaceOnUse">
<stop stop-color="#79F2EA"/>
<stop offset="1" stop-color="#ADFBF6" stop-opacity="0.14"/>
</radialGradient>
</defs>
</svg>
